<svg width="25" height="21" viewBox="0 0 25 21" fill="none" xmlns="http://www.w3.org/2000/svg">
<path d="M10.5093 10.7193C10.5552 10.9065 10.7443 11.0235 10.9344 10.9771C11.123 10.9309 11.2384 10.7405 11.1922 10.5519L10.1697 6.3793C10.1235 6.19072 9.93312 6.07536 9.74455 6.12148C9.55597 6.1677 9.44056 6.35806 9.48673 6.54664L10.5093 10.7193Z" fill="#171616" stroke="#171616" stroke-width="0.2"/>
<path d="M13.6569 10.9871C13.8632 10.9871 14.0244 10.8113 14.0076 10.6069L13.6668 6.43426C13.651 6.24081 13.4822 6.09672 13.2878 6.11251C13.0943 6.12831 12.9502 6.29804 12.966 6.49154L13.3069 10.6642C13.3219 10.8479 13.4757 10.9871 13.6569 10.9871Z" fill="#171616" stroke="#171616" stroke-width="0.2"/>
<path d="M16.8153 10.6642L17.1561 6.49155C17.1719 6.29805 17.0278 6.12836 16.8343 6.11256C16.6413 6.09639 16.471 6.24081 16.4553 6.43436L16.1145 10.607C16.0987 10.8005 16.2427 10.9702 16.4363 10.986C16.6291 11.0018 16.7994 10.8581 16.8153 10.6642Z" fill="#171616" stroke="#171616" stroke-width="0.2"/>
<path d="M19.6111 10.7173L20.6336 6.54472C20.6798 6.35614 20.5644 6.16578 20.3758 6.11956C20.1872 6.07334 19.9969 6.18879 19.9506 6.37737L18.9282 10.55C18.8819 10.7386 18.9974 10.9289 19.186 10.9752C19.3745 11.0213 19.5649 10.9059 19.6111 10.7173Z" fill="#171616" stroke="#171616" stroke-width="0.2"/>
<path d="M22.9412 3.86523H10.6484C10.4543 3.86523 10.2969 4.02264 10.2969 4.21679C10.2969 4.41095 10.4543 4.56835 10.6484 4.56835H22.9412C23.1728 4.56835 23.3424 4.78637 23.2851 5.01104L21.9651 10.1846C21.9171 10.3728 22.0307 10.5642 22.2188 10.6122C22.408 10.6605 22.5986 10.5456 22.6463 10.3585L23.9664 5.18485C24.1371 4.51609 23.6322 3.86523 22.9412 3.86523Z" fill="#171616" stroke="#171616" stroke-width="0.2"/>
<path d="M22.3247 15.6338H8.09347C7.68819 15.6338 7.35847 15.3041 7.35847 14.8988C7.35847 14.4935 7.68819 14.1638 8.09347 14.1638H20.7789C21.4239 14.1638 21.9857 13.7273 22.1452 13.1024L22.357 12.2721C22.405 12.084 22.2915 11.8925 22.1033 11.8445C21.915 11.7965 21.7237 11.9101 21.6757 12.0983L21.4638 12.9285C21.3839 13.2418 21.1023 13.4607 20.7789 13.4607H9.64469C9.32196 13.4607 9.04043 13.2424 8.96004 12.9299L6.89174 4.88815H9.1218C9.31596 4.88815 9.47336 4.73075 9.47336 4.53659C9.47336 4.34244 9.31596 4.18503 9.1218 4.18503H7.9955L7.35805 1.7311C7.1969 1.10443 6.63239 0.666764 5.98533 0.666764H4.51876C4.36243 0.494077 4.13734 0.384766 3.88661 0.384766H0.970868C0.500153 0.384812 0.117188 0.767778 0.117188 1.23849V2.03611C0.117188 2.50683 0.500153 2.88979 0.970868 2.88979H3.88661C4.13734 2.88979 4.36243 2.78048 4.51876 2.6078H5.5793C5.89453 3.83343 7.79403 11.219 8.05245 12.2238C6.59578 12.2458 5.4174 13.437 5.4174 14.8988C5.4174 16.3564 6.58898 17.5447 8.03984 17.5735C7.86697 17.8446 7.76633 18.1661 7.76633 18.5108C7.76633 19.475 8.55082 20.2596 9.51513 20.2596C10.4794 20.2596 11.2639 19.4751 11.2639 18.5108C11.2639 18.1667 11.1636 17.8457 10.9913 17.5749H18.5039C18.3315 17.8457 18.2312 18.1667 18.2312 18.5108C18.2312 19.475 19.0157 20.2596 19.98 20.2596C20.9443 20.2596 21.7288 19.4751 21.7288 18.5108C21.7288 18.1667 21.6285 17.8457 21.4562 17.5749H22.3247C22.8599 17.5749 23.2952 17.1395 23.2952 16.6043C23.2952 16.0692 22.8599 15.6338 22.3247 15.6338ZM0.970868 2.18667C0.887853 2.18667 0.820307 2.11913 0.820307 2.03611V1.23849C0.820307 1.15548 0.887853 1.08793 0.970868 1.08793H3.88661C3.96963 1.08793 4.03717 1.15548 4.03717 1.23849V2.03611C4.03717 2.11913 3.96963 2.18667 3.88661 2.18667H0.970868ZM4.74029 1.90472V1.36993H5.98533C6.31143 1.36993 6.59587 1.59048 6.67729 1.90711L7.26904 4.18508H6.71095L6.19237 2.16872C6.15239 2.01333 6.01233 1.90472 5.85188 1.90472H4.74029ZM9.51508 19.5564C8.93852 19.5564 8.4694 19.0874 8.4694 18.5108C8.4694 17.9342 8.93848 17.4651 9.51508 17.4651C10.0917 17.4651 10.5608 17.9342 10.5608 18.5108C10.5608 19.0874 10.0917 19.5564 9.51508 19.5564ZM19.98 19.5564C19.4035 19.5564 18.9343 19.0874 18.9343 18.5108C18.9343 17.9342 19.4034 17.4651 19.98 17.4651C20.5566 17.4651 21.0257 17.9342 21.0257 18.5108C21.0257 19.0874 20.5566 19.5564 19.98 19.5564ZM22.3247 16.8717H20.5895C20.3997 16.8009 20.1943 16.762 19.98 16.762C19.7658 16.762 19.5605 16.8009 19.3706 16.8717H10.1246C9.9347 16.8009 9.72939 16.762 9.51508 16.762C9.30082 16.762 9.09551 16.8009 8.90562 16.8717H8.09347C7.0056 16.8717 6.12051 15.9867 6.12051 14.8988C6.12051 13.8109 7.00555 12.9258 8.09347 12.9258H8.23301C8.27037 13.0489 8.28837 13.2241 8.42553 13.4607H8.09347C7.30049 13.4607 6.65535 14.1058 6.65535 14.8988C6.65535 15.6918 7.30049 16.3369 8.09347 16.3369H22.3247C22.4722 16.3369 22.5922 16.4569 22.5922 16.6043C22.5921 16.7518 22.4722 16.8717 22.3247 16.8717Z" fill="#171616" stroke="#171616" stroke-width="0.2"/>
</svg>
